<svg id="Layer_1" data-name="Layer 1" xmlns="http://www.w3.org/2000/svg" viewBox="0 0 622.34 688"><defs><style>.cls-1{fill:#231f20;}</style></defs><title>mas-effects</title><path d="M154.53,358.11c.34-13.51.64-27,1-40.55.18-6,.55-12,.76-18a18,18,0,0,0-.44-3.23c-1,.81-2.43,1.42-2.89,2.46a116.07,116.07,0,0,0-4.56,11.92c-1.95,6.19-3.78,12.44-5.33,18.74-1.44,5.88-2.56,11.84-3.61,17.8-1.49,8.54-2.77,17.11-4.17,25.66-2.14,13-4.36,25.92-6.44,38.9-3.53,22-7,44.06-10.46,66.08-1.1,6.89-2.4,13.74-3.57,20.61-1.31,7.71-9.16,13.23-18.4,12.91-4.58-.16-8.88-6.62-9.62-13.69-1.52-14.58,5.72-55.9,6.75-62.43q4.55-28.59,9.46-57.12c2.86-16.43,6-32.81,9-49.2,2.53-13.66,4.93-27.35,7.7-41,3.38-16.61,7.16-33.14,10.64-49.73,2.35-11.17,4.19-22.45,6.82-33.55s5.94-22.23,9.06-33.31c.95-3.37,1.57-7.12,3.5-9.89,4.43-6.32,15-7.42,22.38-5.06C186,161,186.08,172.8,188,183.61a120.31,120.31,0,0,1,1.44,20.61c0,10.95-.7,21.89-.94,32.83-.21,9.89-.21,19.78-.3,29.67-.16,16.24-.83,32.5-.19,48.71.87,12.14,3.22,12.53,5.95,15.58.07.17,1.33.16,1.42,0C201,318.52,206.9,306.18,212,293.51c3.61-9,6.24-18.35,9-27.63,3.1-10.3,26.26-96.18,29-105.84,3.7-12.87,8.15-25.52,12.27-38.27,4-12.33,7.79-24.71,12-37A131,131,0,0,1,282,66.18c6.54-12.39,23.85-12.67,33.74-1.27,5.16,6,6.31,13,6.86,20.17,1.35,17.79,2.66,35.59,3.36,53.41.74,19.08,1.2,38.18,1,57.27-.27,24.09-1.54,48.18-2,72.27-.42,21.94-2.69,97-3.52,112.54-.22,4.18-1,22.91-1.11,28.07a158,158,0,0,0,.76,22.72c.21,1.82,3.88,3.24,6,4.84.74-1.67,1.87-3.28,2.15-5,2.29-13.81,4.54-27.62,6.55-41.46,2.29-15.79,3.77-31.72,6.61-47.41,3.64-20.13,8.36-40.05,12.5-60.09,3.3-16,6.13-32.08,9.72-48s7.71-31.89,11.89-47.76c6.69-25.46,13.75-50.82,20.42-76.28,4.23-16.16,8.09-32.42,12-48.67,2.69-11.25,4.88-22.62,7.76-33.82C418.85,19,428.13,15.42,435.87,20c6.46,3.82,14.93,5.76,17.13,14.23A160.6,160.6,0,0,1,457.13,58c1,9.82,1.41,19.72,1.72,29.6.58,18.22,1.14,36.45,1.26,54.67.12,18-.2,35.91-.57,53.86-.32,15.6-1,31.18-1.45,46.78-.14,5.71,0,11.43.25,17.13,1.65,14.41-.11,15.1,12.61,7.35a151.77,151.77,0,0,0,17.52-13.22,311.2,311.2,0,0,0,46.41-38.51c12.36-9.71,9.61-12.07,1.81-22-5.6-11-9-22.85-6.75-35.34,1.88-10.59,8.09-19,16.08-25.85,12.5-10.75,106.27-71.8,110.91-72.82a58.78,58.78,0,0,1,13.32-1.57c10.12.15,19.39,2.37,26.71,10.54,1.64,1.83-86.28,95.14-94.76,103.84-3,2.75-15.81,15.82-24.73,24.93-3.05,5.26,14.75,22.25,17.56,25.73,6.33,7.85,13.18,15.28,19.4,23.21a169.84,169.84,0,0,1,10.8,16.18c3.71,6,7.26,12.15,10.59,18.38,1.51,2.83,2.28,6,3.45,9.05,6,15.35,6.26,31.27,2.75,46.92-2.27,10.14-6.77,19.88-11.12,29.41a152.94,152.94,0,0,1-13.28,23.8c-5.59,8.05-12.27,15.36-18.74,22.76-8,9.18-15.94,18.44-24.52,27.06C566.3,448,557.42,455.29,549,463c-4.48,4.06-8.62,8.55-13.35,12.29a103.7,103.7,0,0,1-15.44,10.38,126,126,0,0,1-21,9.3c-5.4,1.71-11.39,1.67-17.13,2.08a4.09,4.09,0,0,1-3.27-2.17,5.32,5.32,0,0,1,1-4.4c8.39-8.39,17.25-16.32,25.43-24.91q17.88-18.75,35-38.26c8.38-9.57,16.5-19.42,24-29.65,5.41-7.32,9.92-15.35,14.39-23.31s9.59-16.12,12.5-24.82c3.07-9.21,4.15-19.14,5.6-28.83,2-13.13-.3-25.89-5.57-37.91a183.3,183.3,0,0,0-12.28-22.85c-4.73-7.64-23.46-43.39-27.68-40.59-13.62,12.47-21.81,18.3-43.72,41.51C494.64,272.94,492,277.5,476.28,292c-24.72,22.8-18.35,9.71-17.32,40.24,1.76,7.86,13.16,134.72,13.1,138.6-.11,7.35-4.08,10.46-11.33,9.46-5-.68-10-1.73-15-2.77-6.63-1.37-7.87-7.35-9.89-12.34-4.54-11.22-8.41-22.72-13.12-33.86-4.2-10-18.37-49.74-26-62.54-4.84-7.51-18.91-24.83-24-31-2.37,1.18-4.35,13.46-4.72,15.83-3.34,20.94-7.49,41.83-9.51,62.91-2.36,24.46-1.1,67.49-4.33,73.66-5,8.75-35.63,30.15-41.8,31.11-3.79-2.06-8.41-5.17-9.66-8.89a243.13,243.13,0,0,1-9.32-35.88c-1.74-10-2-20.38-1.95-30.58.11-17.76,1.11-35.51,1.45-53.26.12-6.14,1.71-81.94,1.71-93.72,0-21,.45-91.59.74-105.84.24-12,.24-23.91-.08-35.86-.07-2.85-1.81-5.66-2.79-8.48-3.29,2-8.3,3.21-9.53,6.06-3.21,7.51-4.78,15.71-7,23.65-3.43,12.4-7,24.77-10.21,37.22-1.75,6.81-34.95,118.78-39.52,129.54-4.87,11.47-10.67,22.59-16.62,33.56-2.88,5.31-6.23,11-10.84,14.56-3.75,2.92-9.78,4.33-14.68,4.08-12.62-.66-22.34-3.17-26.28-15.26C155.37,374.57,154.21,358.18,154.53,358.11Zm218.37-27.6c4.85-2.06,16-6.88,19-9.09,6-4.34,12-8.32,17.9-13.09,4.41-3.35,8.9-6.6,13-10.27,5.66-5.08,5.32-12.09,5.28-19.21-.15-23,.25-46.07.5-69.1.13-11.71.55-23.42.55-35.12,0-12.94-.28-25.87-.57-38.8,0-1.44-.88-2.85-1.35-4.28-2.75,1.24-6.72,1.75-8,3.87-2.43,4.07-3.5,9-4.83,13.67-3.53,12.36-7.08,24.72-10.28,37.17-4.14,16.09-8,32.24-11.88,48.41-3.11,13-5.9,26.17-9,39.22C380.51,285.35,371.57,326.71,372.9,330.51Zm193-159.71c0,6.8,3.14,7.67,6,9.57,1.44.95,6.59-1.81,8.72-4.12,7.37-8,44.68-46.75,56.4-57.77A10.06,10.06,0,0,0,638.5,116c-1.17-.37-2.68-1.39-3.47-1-8.81,4.42-17.92,8.43-26.15,13.79-9.69,6.31-18.78,13.61-27.78,20.91C574.63,154.93,569,161,565.91,170.8ZM428.69,333.67c-.2-3.26-.17-8-.59-10.82-5.24,1.8-8,3.75-13,6.29-3.71,3.09-1.5,6,.22,10.33,4.07,10.25,14.58,27,14.5,25.39-.08-1.87-.4-10.68-.47-12.15C429.27,350,429.27,346.21,428.69,333.67Z" transform="translate(-74.64 -18)"/><rect class="cls-1" y="520.33" width="575.38" height="4.71"/><path class="cls-1" d="M87.4,703.09v-121h57.33v10.6H101.08v42.38h40.83v10.25H101.08v47h45.66v10.76Z" transform="translate(-74.64 -18)"/><path class="cls-1" d="M185.36,592.88v43.4h40v10.26h-40v56.55H171.48v-121h56.93v10.77Z" transform="translate(-74.64 -18)"/><path class="cls-1" d="M265,592.88v43.4h40v10.26H265v56.55H251.13v-121h56.93v10.77Z" transform="translate(-74.64 -18)"/><path class="cls-1" d="M330.79,703.09v-121h57.33v10.6H344.47v42.38H385.3v10.25H344.47v47h45.66v10.76Z" transform="translate(-74.64 -18)"/><path class="cls-1" d="M477,701.73A43.56,43.56,0,0,1,457.51,706a43,43,0,0,1-20.72-4.87,45.7,45.7,0,0,1-15.28-13.33A62.43,62.43,0,0,1,412,667.72a97.34,97.34,0,0,1,0-50.41,61.2,61.2,0,0,1,9.66-20.07A45.79,45.79,0,0,1,437,584a43.38,43.38,0,0,1,20.52-4.78,49.11,49.11,0,0,1,18.81,3.59,34.4,34.4,0,0,1,14.58,11.28l-9,7.86a29.6,29.6,0,0,0-10.76-8.89,29.91,29.91,0,0,0-13-2.9,28.26,28.26,0,0,0-15.39,4.1,33.27,33.27,0,0,0-10.86,11.27,55.27,55.27,0,0,0-6.44,16.75,94.06,94.06,0,0,0-2.11,20.33,88.64,88.64,0,0,0,2.21,20.25,56.82,56.82,0,0,0,6.54,16.66,34.06,34.06,0,0,0,10.86,11.37,27.88,27.88,0,0,0,15.39,4.18,26.85,26.85,0,0,0,13.88-3.67,31.53,31.53,0,0,0,10.25-9.65l8.86,7.68A37.5,37.5,0,0,1,477,701.73Z" transform="translate(-74.64 -18)"/><path class="cls-1" d="M535,592.37V703.09H521.07V592.37H493.72V582.11h68.79v10.26Z" transform="translate(-74.64 -18)"/><path class="cls-1" d="M640.56,672.17a34.24,34.24,0,0,1-2.82,14.26A31.09,31.09,0,0,1,630,697a34.25,34.25,0,0,1-11.57,6.66A42.56,42.56,0,0,1,604.35,706a50.25,50.25,0,0,1-20-3.93,40.07,40.07,0,0,1-14.78-10.42l8.65-8.38A30.67,30.67,0,0,0,589.87,692a35.34,35.34,0,0,0,14.28,3.07,23.47,23.47,0,0,0,16.19-5.81q6.54-5.81,6.54-16.57a19.63,19.63,0,0,0-2-9.06,24.51,24.51,0,0,0-5.43-7,42,42,0,0,0-7.75-5.47,94.68,94.68,0,0,0-9.15-4.44,93.67,93.67,0,0,1-11.06-5.39,43,43,0,0,1-9.16-6.92,31,31,0,0,1-6.33-9.31,30.46,30.46,0,0,1-2.42-12.56,33.23,33.23,0,0,1,3-14.61,30.21,30.21,0,0,1,8.15-10.42,34.9,34.9,0,0,1,11.56-6.24,44,44,0,0,1,13.48-2,50.57,50.57,0,0,1,17.4,2.82,31,31,0,0,1,13,8.8l-8.65,8.37a23,23,0,0,0-9.45-7.09A32.24,32.24,0,0,0,610.18,590a27.86,27.86,0,0,0-8.35,1.29,20.06,20.06,0,0,0-12.57,11,23.48,23.48,0,0,0-2,10.08,20.33,20.33,0,0,0,1.81,8.88,22.28,22.28,0,0,0,4.93,6.67,34.53,34.53,0,0,0,7.24,5.13q4.13,2.22,8.55,4.1a117.13,117.13,0,0,1,11.16,5.46,51.23,51.23,0,0,1,10,7.18,31.48,31.48,0,0,1,7,9.57A29.49,29.49,0,0,1,640.56,672.17Z" transform="translate(-74.64 -18)"/></svg>